G04 EAGLE Gerber RS-274X export*
G75*
%MOMM*%
%FSLAX34Y34*%
%LPD*%
%INBottom Copper*%
%IPPOS*%
%AMOC8*
5,1,8,0,0,1.08239X$1,22.5*%
G01*
%ADD10C,1.778000*%
%ADD11R,1.270000X2.540000*%
%ADD12C,0.706400*%
%ADD13C,0.200000*%
%ADD14C,0.609600*%
%ADD15C,1.016000*%

G36*
X115903Y2755D02*
X115903Y2755D01*
X115935Y2753D01*
X116042Y2775D01*
X116150Y2791D01*
X116179Y2804D01*
X116211Y2810D01*
X116307Y2862D01*
X116407Y2907D01*
X116431Y2928D01*
X116460Y2943D01*
X116538Y3019D01*
X116621Y3090D01*
X116639Y3117D01*
X116662Y3140D01*
X116716Y3235D01*
X116775Y3326D01*
X116785Y3357D01*
X116801Y3385D01*
X116826Y3491D01*
X116858Y3596D01*
X116858Y3628D01*
X116866Y3660D01*
X116860Y3769D01*
X116862Y3878D01*
X116853Y3909D01*
X116851Y3941D01*
X116816Y4044D01*
X116786Y4150D01*
X116769Y4177D01*
X116759Y4208D01*
X116705Y4281D01*
X116638Y4390D01*
X116602Y4422D01*
X116585Y4445D01*
X116585Y31112D01*
X117563Y32089D01*
X117620Y32166D01*
X117685Y32237D01*
X117705Y32278D01*
X117732Y32314D01*
X117766Y32405D01*
X117808Y32491D01*
X117814Y32533D01*
X117831Y32578D01*
X117841Y32706D01*
X117855Y32795D01*
X117855Y134010D01*
X117842Y134105D01*
X117837Y134201D01*
X117822Y134245D01*
X117815Y134290D01*
X117776Y134377D01*
X117744Y134468D01*
X117719Y134502D01*
X117699Y134546D01*
X117616Y134644D01*
X117563Y134717D01*
X105507Y146773D01*
X105430Y146830D01*
X105359Y146895D01*
X105318Y146915D01*
X105281Y146942D01*
X105191Y146976D01*
X105105Y147018D01*
X105063Y147024D01*
X105017Y147041D01*
X104890Y147051D01*
X104800Y147065D01*
X93936Y147065D01*
X91509Y148071D01*
X89651Y149929D01*
X88645Y152356D01*
X88645Y154984D01*
X89651Y157411D01*
X91509Y159269D01*
X93936Y160275D01*
X109264Y160275D01*
X111691Y159269D01*
X130059Y140901D01*
X131065Y138474D01*
X131065Y32795D01*
X131078Y32701D01*
X131083Y32604D01*
X131098Y32561D01*
X131105Y32516D01*
X131144Y32429D01*
X131176Y32338D01*
X131201Y32303D01*
X131221Y32259D01*
X131304Y32162D01*
X131357Y32089D01*
X132335Y31112D01*
X132335Y4446D01*
X132324Y4431D01*
X132299Y4410D01*
X132239Y4318D01*
X132174Y4231D01*
X132162Y4201D01*
X132145Y4174D01*
X132113Y4069D01*
X132074Y3967D01*
X132072Y3935D01*
X132062Y3904D01*
X132061Y3795D01*
X132052Y3686D01*
X132059Y3654D01*
X132058Y3622D01*
X132088Y3517D01*
X132110Y3410D01*
X132125Y3381D01*
X132134Y3350D01*
X132191Y3257D01*
X132242Y3161D01*
X132265Y3138D01*
X132282Y3110D01*
X132363Y3037D01*
X132439Y2959D01*
X132467Y2943D01*
X132491Y2921D01*
X132589Y2874D01*
X132684Y2820D01*
X132716Y2812D01*
X132745Y2798D01*
X132834Y2784D01*
X132959Y2755D01*
X133007Y2757D01*
X133049Y2751D01*
X440750Y2751D01*
X440814Y2760D01*
X440878Y2759D01*
X440953Y2780D01*
X441029Y2791D01*
X441088Y2817D01*
X441150Y2834D01*
X441216Y2875D01*
X441286Y2907D01*
X441335Y2949D01*
X441390Y2982D01*
X441442Y3040D01*
X441500Y3090D01*
X441536Y3144D01*
X441579Y3192D01*
X441612Y3261D01*
X441655Y3326D01*
X441674Y3388D01*
X441702Y3445D01*
X441713Y3515D01*
X441737Y3596D01*
X441738Y3681D01*
X441749Y3750D01*
X441749Y199450D01*
X441740Y199514D01*
X441741Y199578D01*
X441720Y199653D01*
X441709Y199729D01*
X441683Y199788D01*
X441666Y199850D01*
X441625Y199916D01*
X441593Y199986D01*
X441551Y200035D01*
X441518Y200090D01*
X441460Y200142D01*
X441410Y200200D01*
X441356Y200236D01*
X441308Y200279D01*
X441239Y200312D01*
X441174Y200355D01*
X441112Y200374D01*
X441055Y200402D01*
X440985Y200413D01*
X440904Y200437D01*
X440819Y200438D01*
X440750Y200449D01*
X233294Y200449D01*
X233262Y200445D01*
X233230Y200447D01*
X233123Y200425D01*
X233015Y200409D01*
X232986Y200396D01*
X232954Y200390D01*
X232858Y200338D01*
X232758Y200293D01*
X232734Y200272D01*
X232705Y200257D01*
X232627Y200181D01*
X232544Y200110D01*
X232526Y200083D01*
X232503Y200060D01*
X232449Y199965D01*
X232390Y199874D01*
X232380Y199843D01*
X232364Y199815D01*
X232339Y199709D01*
X232307Y199604D01*
X232307Y199572D01*
X232299Y199541D01*
X232305Y199431D01*
X232303Y199322D01*
X232312Y199291D01*
X232314Y199259D01*
X232349Y199156D01*
X232379Y199050D01*
X232396Y199023D01*
X232406Y198992D01*
X232459Y198919D01*
X232527Y198810D01*
X232563Y198778D01*
X232588Y198743D01*
X233657Y197675D01*
X233657Y193485D01*
X233346Y193175D01*
X233326Y193149D01*
X233302Y193128D01*
X233242Y193036D01*
X233177Y192949D01*
X233165Y192919D01*
X233148Y192892D01*
X233116Y192787D01*
X233077Y192685D01*
X233075Y192653D01*
X233065Y192622D01*
X233064Y192513D01*
X233055Y192404D01*
X233062Y192372D01*
X233061Y192340D01*
X233091Y192235D01*
X233113Y192128D01*
X233128Y192099D01*
X233137Y192068D01*
X233194Y191975D01*
X233245Y191879D01*
X233268Y191856D01*
X233285Y191828D01*
X233366Y191755D01*
X233442Y191677D01*
X233470Y191661D01*
X233494Y191639D01*
X233592Y191592D01*
X233687Y191538D01*
X233719Y191530D01*
X233748Y191516D01*
X233837Y191502D01*
X233962Y191473D01*
X234010Y191475D01*
X234052Y191469D01*
X293336Y191469D01*
X297837Y186967D01*
X297914Y186910D01*
X297985Y186845D01*
X298026Y186825D01*
X298062Y186798D01*
X298152Y186764D01*
X298239Y186722D01*
X298281Y186716D01*
X298326Y186699D01*
X298454Y186689D01*
X298543Y186675D01*
X414060Y186675D01*
X414154Y186688D01*
X414251Y186693D01*
X414294Y186708D01*
X414339Y186715D01*
X414426Y186754D01*
X414517Y186786D01*
X414552Y186811D01*
X414596Y186831D01*
X414693Y186914D01*
X414766Y186967D01*
X417005Y189207D01*
X421195Y189207D01*
X424157Y186245D01*
X424157Y182055D01*
X421195Y179093D01*
X417005Y179093D01*
X414766Y181333D01*
X414689Y181390D01*
X414618Y181455D01*
X414577Y181475D01*
X414541Y181502D01*
X414450Y181536D01*
X414364Y181578D01*
X414322Y181584D01*
X414277Y181601D01*
X414149Y181611D01*
X414060Y181625D01*
X299338Y181625D01*
X299306Y181621D01*
X299274Y181623D01*
X299167Y181601D01*
X299058Y181585D01*
X299029Y181572D01*
X298997Y181566D01*
X298901Y181514D01*
X298801Y181469D01*
X298777Y181448D01*
X298749Y181433D01*
X298670Y181357D01*
X298587Y181286D01*
X298570Y181259D01*
X298546Y181236D01*
X298493Y181141D01*
X298433Y181050D01*
X298423Y181019D01*
X298407Y180991D01*
X298382Y180884D01*
X298350Y180780D01*
X298350Y180748D01*
X298342Y180717D01*
X298348Y180607D01*
X298347Y180498D01*
X298355Y180467D01*
X298357Y180435D01*
X298393Y180332D01*
X298422Y180226D01*
X298439Y180199D01*
X298449Y180168D01*
X298503Y180095D01*
X298570Y179986D01*
X298578Y179980D01*
X298579Y179978D01*
X298608Y179951D01*
X298631Y179919D01*
X302303Y176247D01*
X302354Y176209D01*
X302399Y176163D01*
X302467Y176125D01*
X302529Y176078D01*
X302589Y176055D01*
X302645Y176024D01*
X302720Y176006D01*
X302792Y175979D01*
X302856Y175974D01*
X302919Y175959D01*
X302997Y175963D01*
X303074Y175957D01*
X303137Y175970D01*
X303201Y175973D01*
X303274Y175999D01*
X303350Y176014D01*
X303407Y176045D01*
X303467Y176066D01*
X303524Y176107D01*
X303599Y176147D01*
X303659Y176206D01*
X303716Y176247D01*
X305245Y177777D01*
X309435Y177777D01*
X312397Y174815D01*
X312397Y170625D01*
X309483Y167712D01*
X309444Y167660D01*
X309398Y167615D01*
X309360Y167548D01*
X309314Y167486D01*
X309291Y167426D01*
X309259Y167370D01*
X309241Y167295D01*
X309214Y167222D01*
X309209Y167158D01*
X309194Y167095D01*
X309198Y167018D01*
X309192Y166941D01*
X309205Y166878D01*
X309209Y166814D01*
X309234Y166741D01*
X309250Y166665D01*
X309280Y166608D01*
X309301Y166547D01*
X309343Y166491D01*
X309382Y166416D01*
X309441Y166355D01*
X309483Y166298D01*
X312397Y163385D01*
X312397Y159195D01*
X309435Y156233D01*
X305245Y156233D01*
X303951Y157528D01*
X303925Y157547D01*
X303904Y157572D01*
X303812Y157632D01*
X303725Y157697D01*
X303695Y157709D01*
X303668Y157726D01*
X303563Y157758D01*
X303461Y157797D01*
X303429Y157799D01*
X303398Y157809D01*
X303289Y157810D01*
X303180Y157819D01*
X303148Y157812D01*
X303116Y157813D01*
X303011Y157783D01*
X302904Y157761D01*
X302875Y157746D01*
X302844Y157737D01*
X302751Y157680D01*
X302655Y157629D01*
X302632Y157606D01*
X302604Y157589D01*
X302531Y157508D01*
X302453Y157432D01*
X302437Y157404D01*
X302415Y157380D01*
X302368Y157282D01*
X302314Y157187D01*
X302306Y157155D01*
X302292Y157126D01*
X302278Y157037D01*
X302249Y156912D01*
X302251Y156864D01*
X302245Y156822D01*
X302245Y40830D01*
X302258Y40735D01*
X302263Y40639D01*
X302278Y40595D01*
X302285Y40550D01*
X302324Y40463D01*
X302356Y40372D01*
X302381Y40338D01*
X302401Y40294D01*
X302484Y40196D01*
X302537Y40123D01*
X319523Y23137D01*
X319600Y23080D01*
X319671Y23015D01*
X319712Y22995D01*
X319749Y22968D01*
X319839Y22934D01*
X319925Y22892D01*
X319967Y22886D01*
X320013Y22869D01*
X320140Y22859D01*
X320230Y22845D01*
X412790Y22845D01*
X412884Y22858D01*
X412981Y22863D01*
X413024Y22878D01*
X413069Y22885D01*
X413156Y22924D01*
X413247Y22956D01*
X413282Y22981D01*
X413326Y23001D01*
X413423Y23084D01*
X413496Y23137D01*
X415735Y25377D01*
X419925Y25377D01*
X422887Y22415D01*
X422887Y18225D01*
X419925Y15263D01*
X415735Y15263D01*
X413496Y17503D01*
X413419Y17560D01*
X413348Y17625D01*
X413307Y17645D01*
X413271Y17672D01*
X413180Y17706D01*
X413094Y17748D01*
X413052Y17754D01*
X413007Y17771D01*
X412879Y17781D01*
X412790Y17795D01*
X317724Y17795D01*
X297195Y38324D01*
X297195Y161197D01*
X297182Y161291D01*
X297177Y161388D01*
X297162Y161431D01*
X297155Y161476D01*
X297116Y161563D01*
X297084Y161654D01*
X297059Y161689D01*
X297039Y161733D01*
X296956Y161830D01*
X296903Y161903D01*
X283251Y175555D01*
X283174Y175612D01*
X283103Y175677D01*
X283062Y175697D01*
X283026Y175724D01*
X282936Y175758D01*
X282849Y175800D01*
X282807Y175806D01*
X282762Y175823D01*
X282634Y175833D01*
X282545Y175847D01*
X234656Y175847D01*
X234592Y175838D01*
X234528Y175839D01*
X234453Y175818D01*
X234377Y175807D01*
X234318Y175781D01*
X234256Y175764D01*
X234190Y175723D01*
X234120Y175691D01*
X234071Y175649D01*
X234016Y175616D01*
X233964Y175558D01*
X233906Y175508D01*
X233870Y175454D01*
X233827Y175406D01*
X233794Y175337D01*
X233751Y175272D01*
X233732Y175210D01*
X233704Y175153D01*
X233693Y175083D01*
X233669Y175002D01*
X233668Y174917D01*
X233657Y174848D01*
X233657Y171895D01*
X230695Y168933D01*
X226505Y168933D01*
X223543Y171895D01*
X223543Y176085D01*
X225124Y177665D01*
X225143Y177691D01*
X225168Y177712D01*
X225228Y177804D01*
X225293Y177891D01*
X225305Y177921D01*
X225322Y177948D01*
X225354Y178053D01*
X225393Y178155D01*
X225395Y178187D01*
X225405Y178218D01*
X225406Y178327D01*
X225415Y178436D01*
X225408Y178468D01*
X225409Y178500D01*
X225379Y178605D01*
X225357Y178712D01*
X225342Y178741D01*
X225333Y178772D01*
X225276Y178865D01*
X225225Y178961D01*
X225202Y178984D01*
X225185Y179012D01*
X225104Y179085D01*
X225028Y179163D01*
X225000Y179179D01*
X224976Y179201D01*
X224878Y179248D01*
X224783Y179302D01*
X224751Y179310D01*
X224722Y179324D01*
X224633Y179338D01*
X224508Y179367D01*
X224460Y179365D01*
X224418Y179371D01*
X123666Y179371D01*
X123571Y179358D01*
X123475Y179353D01*
X123431Y179338D01*
X123386Y179331D01*
X123299Y179292D01*
X123208Y179260D01*
X123174Y179235D01*
X123130Y179215D01*
X123032Y179132D01*
X122959Y179079D01*
X122189Y178309D01*
X122175Y178290D01*
X122163Y178279D01*
X122132Y178232D01*
X122067Y178161D01*
X122047Y178120D01*
X122020Y178083D01*
X121986Y177993D01*
X121944Y177907D01*
X121938Y177865D01*
X121921Y177819D01*
X121911Y177692D01*
X121897Y177602D01*
X121897Y174435D01*
X118935Y171473D01*
X114745Y171473D01*
X111783Y174435D01*
X111783Y178625D01*
X114348Y181189D01*
X114368Y181215D01*
X114392Y181236D01*
X114452Y181328D01*
X114517Y181415D01*
X114529Y181445D01*
X114546Y181472D01*
X114578Y181577D01*
X114617Y181679D01*
X114619Y181711D01*
X114629Y181742D01*
X114630Y181851D01*
X114639Y181960D01*
X114632Y181992D01*
X114633Y182024D01*
X114603Y182129D01*
X114581Y182236D01*
X114566Y182265D01*
X114557Y182296D01*
X114500Y182389D01*
X114449Y182485D01*
X114426Y182508D01*
X114409Y182536D01*
X114328Y182609D01*
X114252Y182687D01*
X114224Y182703D01*
X114200Y182725D01*
X114102Y182772D01*
X114007Y182826D01*
X113975Y182834D01*
X113946Y182848D01*
X113857Y182862D01*
X113732Y182891D01*
X113684Y182889D01*
X113642Y182895D01*
X87590Y182895D01*
X87496Y182882D01*
X87399Y182877D01*
X87356Y182862D01*
X87311Y182855D01*
X87224Y182816D01*
X87133Y182784D01*
X87098Y182759D01*
X87054Y182739D01*
X86957Y182656D01*
X86884Y182603D01*
X85915Y181633D01*
X81725Y181633D01*
X78763Y184595D01*
X78763Y188785D01*
X81725Y191747D01*
X85915Y191747D01*
X88900Y188761D01*
X88906Y188741D01*
X88917Y188665D01*
X88943Y188606D01*
X88960Y188544D01*
X89001Y188478D01*
X89033Y188408D01*
X89075Y188359D01*
X89108Y188304D01*
X89166Y188252D01*
X89216Y188194D01*
X89270Y188158D01*
X89318Y188115D01*
X89387Y188082D01*
X89452Y188039D01*
X89514Y188020D01*
X89571Y187992D01*
X89641Y187981D01*
X89722Y187957D01*
X89807Y187956D01*
X89876Y187945D01*
X227426Y187945D01*
X227458Y187949D01*
X227490Y187947D01*
X227597Y187969D01*
X227706Y187985D01*
X227735Y187998D01*
X227767Y188004D01*
X227863Y188056D01*
X227963Y188101D01*
X227987Y188122D01*
X228016Y188137D01*
X228094Y188213D01*
X228177Y188284D01*
X228194Y188311D01*
X228218Y188334D01*
X228271Y188428D01*
X228331Y188520D01*
X228341Y188551D01*
X228357Y188579D01*
X228382Y188685D01*
X228414Y188790D01*
X228414Y188822D01*
X228422Y188853D01*
X228416Y188963D01*
X228417Y189072D01*
X228409Y189103D01*
X228407Y189135D01*
X228371Y189238D01*
X228342Y189344D01*
X228325Y189371D01*
X228315Y189402D01*
X228261Y189475D01*
X228194Y189584D01*
X228158Y189616D01*
X228133Y189651D01*
X227553Y190231D01*
X227476Y190288D01*
X227405Y190353D01*
X227364Y190373D01*
X227327Y190400D01*
X227237Y190434D01*
X227151Y190476D01*
X227109Y190482D01*
X227063Y190499D01*
X226936Y190509D01*
X226846Y190523D01*
X226505Y190523D01*
X223543Y193485D01*
X223543Y197675D01*
X224612Y198743D01*
X224631Y198769D01*
X224656Y198790D01*
X224716Y198882D01*
X224781Y198969D01*
X224793Y198999D01*
X224810Y199026D01*
X224842Y199131D01*
X224881Y199233D01*
X224883Y199265D01*
X224893Y199296D01*
X224894Y199405D01*
X224903Y199514D01*
X224896Y199546D01*
X224897Y199578D01*
X224867Y199683D01*
X224845Y199790D01*
X224830Y199819D01*
X224821Y199850D01*
X224764Y199943D01*
X224713Y200039D01*
X224690Y200062D01*
X224673Y200090D01*
X224592Y200163D01*
X224516Y200241D01*
X224488Y200257D01*
X224464Y200279D01*
X224366Y200326D01*
X224271Y200380D01*
X224239Y200388D01*
X224210Y200402D01*
X224121Y200416D01*
X223996Y200445D01*
X223948Y200443D01*
X223906Y200449D01*
X69464Y200449D01*
X69432Y200445D01*
X69400Y200447D01*
X69293Y200425D01*
X69185Y200409D01*
X69156Y200396D01*
X69124Y200390D01*
X69028Y200338D01*
X68928Y200293D01*
X68904Y200272D01*
X68875Y200257D01*
X68797Y200181D01*
X68714Y200110D01*
X68696Y200083D01*
X68673Y200060D01*
X68619Y199965D01*
X68560Y199874D01*
X68550Y199843D01*
X68534Y199815D01*
X68509Y199709D01*
X68477Y199604D01*
X68477Y199572D01*
X68469Y199541D01*
X68475Y199431D01*
X68473Y199322D01*
X68482Y199291D01*
X68484Y199259D01*
X68519Y199156D01*
X68549Y199050D01*
X68566Y199023D01*
X68576Y198992D01*
X68629Y198919D01*
X68697Y198810D01*
X68733Y198778D01*
X68758Y198743D01*
X69827Y197675D01*
X69827Y193485D01*
X68183Y191842D01*
X68144Y191790D01*
X68098Y191745D01*
X68060Y191678D01*
X68014Y191616D01*
X67991Y191556D01*
X67959Y191500D01*
X67941Y191425D01*
X67914Y191352D01*
X67909Y191288D01*
X67894Y191226D01*
X67898Y191148D01*
X67892Y191071D01*
X67905Y191008D01*
X67909Y190944D01*
X67934Y190871D01*
X67950Y190795D01*
X67980Y190738D01*
X68001Y190677D01*
X68043Y190621D01*
X68082Y190546D01*
X68142Y190485D01*
X68183Y190428D01*
X69827Y188785D01*
X69827Y184595D01*
X66865Y181633D01*
X62675Y181633D01*
X60436Y183873D01*
X60359Y183930D01*
X60288Y183995D01*
X60247Y184015D01*
X60211Y184042D01*
X60120Y184076D01*
X60034Y184118D01*
X59992Y184124D01*
X59947Y184141D01*
X59819Y184151D01*
X59730Y184165D01*
X58610Y184165D01*
X58515Y184152D01*
X58419Y184147D01*
X58375Y184132D01*
X58330Y184125D01*
X58243Y184086D01*
X58152Y184054D01*
X58118Y184029D01*
X58074Y184009D01*
X57976Y183926D01*
X57903Y183873D01*
X57141Y183111D01*
X57084Y183034D01*
X57019Y182963D01*
X56999Y182922D01*
X56972Y182885D01*
X56938Y182795D01*
X56896Y182709D01*
X56890Y182667D01*
X56873Y182621D01*
X56863Y182494D01*
X56849Y182404D01*
X56849Y120684D01*
X55077Y118913D01*
X42187Y106023D01*
X42130Y105946D01*
X42065Y105875D01*
X42045Y105834D01*
X42018Y105798D01*
X41984Y105708D01*
X41942Y105621D01*
X41936Y105579D01*
X41919Y105534D01*
X41909Y105406D01*
X41895Y105317D01*
X41895Y95474D01*
X39639Y93219D01*
X39582Y93142D01*
X39517Y93071D01*
X39497Y93030D01*
X39470Y92993D01*
X39436Y92903D01*
X39394Y92817D01*
X39388Y92775D01*
X39371Y92729D01*
X39361Y92602D01*
X39347Y92512D01*
X39347Y89345D01*
X36385Y86383D01*
X32195Y86383D01*
X29233Y89345D01*
X29233Y93535D01*
X32195Y96497D01*
X35362Y96497D01*
X35457Y96510D01*
X35553Y96515D01*
X35597Y96530D01*
X35642Y96537D01*
X35729Y96576D01*
X35820Y96608D01*
X35854Y96633D01*
X35898Y96653D01*
X35996Y96736D01*
X36069Y96789D01*
X36553Y97273D01*
X36610Y97350D01*
X36675Y97421D01*
X36695Y97462D01*
X36722Y97499D01*
X36756Y97589D01*
X36798Y97675D01*
X36804Y97717D01*
X36821Y97763D01*
X36831Y97890D01*
X36845Y97980D01*
X36845Y105704D01*
X36837Y105765D01*
X36837Y105801D01*
X36837Y105803D01*
X36837Y105832D01*
X36816Y105907D01*
X36805Y105983D01*
X36779Y106042D01*
X36762Y106104D01*
X36721Y106170D01*
X36689Y106240D01*
X36647Y106289D01*
X36614Y106344D01*
X36556Y106396D01*
X36506Y106454D01*
X36452Y106490D01*
X36404Y106533D01*
X36335Y106566D01*
X36270Y106609D01*
X36208Y106628D01*
X36151Y106656D01*
X36081Y106667D01*
X36000Y106691D01*
X35915Y106692D01*
X35846Y106703D01*
X32195Y106703D01*
X29233Y109665D01*
X29233Y113855D01*
X32195Y116817D01*
X36385Y116817D01*
X37279Y115922D01*
X37330Y115884D01*
X37375Y115838D01*
X37442Y115800D01*
X37504Y115753D01*
X37564Y115731D01*
X37620Y115699D01*
X37696Y115681D01*
X37768Y115654D01*
X37832Y115649D01*
X37895Y115634D01*
X37972Y115638D01*
X38049Y115632D01*
X38112Y115645D01*
X38177Y115648D01*
X38250Y115674D01*
X38326Y115689D01*
X38382Y115720D01*
X38443Y115741D01*
X38500Y115782D01*
X38575Y115822D01*
X38635Y115881D01*
X38692Y115922D01*
X47983Y125213D01*
X48040Y125290D01*
X48105Y125361D01*
X48125Y125402D01*
X48152Y125439D01*
X48186Y125529D01*
X48228Y125615D01*
X48234Y125657D01*
X48251Y125703D01*
X48261Y125830D01*
X48275Y125920D01*
X48275Y186466D01*
X59939Y198130D01*
X59964Y198138D01*
X60009Y198145D01*
X60096Y198184D01*
X60187Y198216D01*
X60221Y198241D01*
X60266Y198261D01*
X60363Y198344D01*
X60436Y198397D01*
X60782Y198743D01*
X60801Y198769D01*
X60826Y198790D01*
X60886Y198882D01*
X60951Y198969D01*
X60963Y198999D01*
X60980Y199026D01*
X61012Y199131D01*
X61051Y199233D01*
X61053Y199265D01*
X61063Y199296D01*
X61064Y199405D01*
X61073Y199514D01*
X61066Y199546D01*
X61067Y199578D01*
X61037Y199683D01*
X61015Y199790D01*
X61000Y199819D01*
X60991Y199850D01*
X60934Y199943D01*
X60883Y200039D01*
X60860Y200062D01*
X60843Y200090D01*
X60762Y200163D01*
X60686Y200241D01*
X60658Y200257D01*
X60634Y200279D01*
X60535Y200326D01*
X60441Y200380D01*
X60409Y200388D01*
X60380Y200402D01*
X60291Y200416D01*
X60166Y200445D01*
X60118Y200443D01*
X60076Y200449D01*
X6350Y200449D01*
X6280Y200439D01*
X6220Y200441D01*
X5547Y200352D01*
X5507Y200341D01*
X5465Y200338D01*
X5384Y200307D01*
X5275Y200276D01*
X5225Y200245D01*
X5177Y200227D01*
X4012Y199554D01*
X3928Y199488D01*
X3840Y199428D01*
X3819Y199403D01*
X3790Y199380D01*
X3704Y199259D01*
X3646Y199188D01*
X2973Y198023D01*
X2958Y197984D01*
X2935Y197949D01*
X2910Y197866D01*
X2868Y197761D01*
X2862Y197702D01*
X2848Y197653D01*
X2759Y196980D01*
X2760Y196910D01*
X2751Y196850D01*
X2751Y6350D01*
X2761Y6280D01*
X2759Y6220D01*
X2848Y5547D01*
X2859Y5507D01*
X2862Y5465D01*
X2893Y5384D01*
X2924Y5275D01*
X2955Y5225D01*
X2973Y5177D01*
X3646Y4012D01*
X3712Y3928D01*
X3772Y3840D01*
X3797Y3819D01*
X3820Y3790D01*
X3941Y3704D01*
X4012Y3646D01*
X5177Y2973D01*
X5216Y2958D01*
X5251Y2935D01*
X5334Y2910D01*
X5439Y2868D01*
X5498Y2862D01*
X5547Y2848D01*
X6220Y2759D01*
X6290Y2760D01*
X6350Y2751D01*
X115871Y2751D01*
X115903Y2755D01*
G37*
%LPC*%
G36*
X236665Y64793D02*
X236665Y64793D01*
X233703Y67755D01*
X233703Y68026D01*
X233690Y68121D01*
X233685Y68217D01*
X233670Y68260D01*
X233663Y68305D01*
X233624Y68393D01*
X233592Y68484D01*
X233567Y68518D01*
X233547Y68562D01*
X233464Y68659D01*
X233411Y68733D01*
X205409Y96735D01*
X205332Y96792D01*
X205260Y96857D01*
X205219Y96877D01*
X205183Y96904D01*
X205093Y96938D01*
X205007Y96980D01*
X204965Y96986D01*
X204919Y97003D01*
X204791Y97013D01*
X204702Y97027D01*
X189876Y97027D01*
X161797Y125106D01*
X161797Y139248D01*
X161784Y139342D01*
X161779Y139439D01*
X161764Y139482D01*
X161757Y139527D01*
X161718Y139614D01*
X161686Y139705D01*
X161661Y139740D01*
X161641Y139784D01*
X161558Y139881D01*
X161505Y139954D01*
X161313Y140145D01*
X161313Y144335D01*
X161505Y144526D01*
X161562Y144603D01*
X161627Y144674D01*
X161647Y144715D01*
X161674Y144751D01*
X161708Y144842D01*
X161750Y144928D01*
X161756Y144970D01*
X161773Y145015D01*
X161783Y145143D01*
X161797Y145232D01*
X161797Y148138D01*
X161784Y148232D01*
X161779Y148329D01*
X161764Y148372D01*
X161757Y148417D01*
X161718Y148504D01*
X161686Y148595D01*
X161661Y148630D01*
X161641Y148674D01*
X161558Y148771D01*
X161505Y148844D01*
X161313Y149035D01*
X161313Y153225D01*
X164275Y156187D01*
X168465Y156187D01*
X171427Y153225D01*
X171427Y149035D01*
X171235Y148844D01*
X171178Y148767D01*
X171113Y148696D01*
X171093Y148655D01*
X171066Y148619D01*
X171032Y148528D01*
X170990Y148442D01*
X170984Y148400D01*
X170967Y148355D01*
X170957Y148227D01*
X170943Y148138D01*
X170943Y145232D01*
X170956Y145138D01*
X170961Y145041D01*
X170976Y144998D01*
X170983Y144953D01*
X171022Y144866D01*
X171054Y144775D01*
X171079Y144740D01*
X171099Y144696D01*
X171182Y144599D01*
X171235Y144526D01*
X171427Y144335D01*
X171427Y140145D01*
X171235Y139954D01*
X171178Y139877D01*
X171113Y139806D01*
X171093Y139765D01*
X171066Y139729D01*
X171032Y139638D01*
X170990Y139552D01*
X170984Y139510D01*
X170967Y139465D01*
X170957Y139337D01*
X170943Y139248D01*
X170943Y129308D01*
X170956Y129213D01*
X170961Y129117D01*
X170976Y129074D01*
X170983Y129029D01*
X171022Y128941D01*
X171054Y128850D01*
X171079Y128816D01*
X171099Y128772D01*
X171182Y128675D01*
X171235Y128601D01*
X193371Y106465D01*
X193448Y106408D01*
X193520Y106343D01*
X193561Y106323D01*
X193597Y106296D01*
X193687Y106262D01*
X193773Y106220D01*
X193815Y106214D01*
X193861Y106197D01*
X193989Y106187D01*
X194078Y106173D01*
X208904Y106173D01*
X239877Y75199D01*
X239954Y75142D01*
X240026Y75077D01*
X240067Y75057D01*
X240103Y75030D01*
X240193Y74996D01*
X240279Y74954D01*
X240321Y74948D01*
X240367Y74931D01*
X240495Y74921D01*
X240584Y74907D01*
X240855Y74907D01*
X241046Y74715D01*
X241123Y74658D01*
X241194Y74593D01*
X241235Y74573D01*
X241271Y74546D01*
X241362Y74512D01*
X241448Y74470D01*
X241490Y74464D01*
X241535Y74447D01*
X241663Y74437D01*
X241752Y74423D01*
X243388Y74423D01*
X243483Y74436D01*
X243579Y74441D01*
X243622Y74456D01*
X243667Y74463D01*
X243754Y74502D01*
X243845Y74534D01*
X243880Y74559D01*
X243924Y74579D01*
X244021Y74662D01*
X244094Y74715D01*
X244285Y74907D01*
X248475Y74907D01*
X251437Y71945D01*
X251437Y67755D01*
X248475Y64793D01*
X244285Y64793D01*
X244094Y64985D01*
X244017Y65042D01*
X243946Y65107D01*
X243905Y65127D01*
X243869Y65154D01*
X243779Y65188D01*
X243692Y65230D01*
X243650Y65236D01*
X243605Y65253D01*
X243477Y65263D01*
X243388Y65277D01*
X241752Y65277D01*
X241658Y65264D01*
X241561Y65259D01*
X241518Y65244D01*
X241473Y65237D01*
X241386Y65198D01*
X241295Y65166D01*
X241260Y65141D01*
X241216Y65121D01*
X241119Y65038D01*
X241046Y64985D01*
X240855Y64793D01*
X236665Y64793D01*
G37*
%LPD*%
%LPC*%
G36*
X14956Y154099D02*
X14956Y154099D01*
X12751Y155013D01*
X11063Y156701D01*
X10149Y158906D01*
X10149Y161294D01*
X11063Y163499D01*
X12751Y165187D01*
X14956Y166101D01*
X17344Y166101D01*
X17768Y165925D01*
X17861Y165901D01*
X17951Y165869D01*
X17997Y165866D01*
X18041Y165855D01*
X18137Y165858D01*
X18233Y165852D01*
X18274Y165863D01*
X18323Y165864D01*
X18444Y165904D01*
X18532Y165925D01*
X18956Y166101D01*
X21344Y166101D01*
X23628Y165155D01*
X23669Y165124D01*
X23729Y165101D01*
X23785Y165069D01*
X23861Y165051D01*
X23933Y165024D01*
X23997Y165019D01*
X24060Y165004D01*
X24137Y165008D01*
X24214Y165002D01*
X24277Y165015D01*
X24342Y165019D01*
X24415Y165044D01*
X24490Y165060D01*
X24547Y165090D01*
X24608Y165111D01*
X24661Y165150D01*
X26956Y166101D01*
X29344Y166101D01*
X29768Y165925D01*
X29861Y165901D01*
X29951Y165869D01*
X29997Y165866D01*
X30041Y165855D01*
X30137Y165858D01*
X30233Y165852D01*
X30274Y165863D01*
X30323Y165864D01*
X30444Y165904D01*
X30532Y165925D01*
X30956Y166101D01*
X33344Y166101D01*
X35549Y165187D01*
X37237Y163499D01*
X38151Y161294D01*
X38151Y158906D01*
X37237Y156701D01*
X35549Y155013D01*
X33344Y154099D01*
X30956Y154099D01*
X30532Y154275D01*
X30439Y154299D01*
X30349Y154331D01*
X30303Y154334D01*
X30259Y154345D01*
X30163Y154342D01*
X30067Y154348D01*
X30026Y154337D01*
X29977Y154336D01*
X29856Y154296D01*
X29768Y154275D01*
X29344Y154099D01*
X26956Y154099D01*
X24673Y155045D01*
X24631Y155076D01*
X24571Y155099D01*
X24515Y155131D01*
X24440Y155149D01*
X24368Y155176D01*
X24303Y155181D01*
X24241Y155196D01*
X24163Y155192D01*
X24086Y155198D01*
X24023Y155185D01*
X23959Y155181D01*
X23886Y155156D01*
X23810Y155140D01*
X23753Y155110D01*
X23692Y155089D01*
X23640Y155050D01*
X21344Y154099D01*
X18956Y154099D01*
X18532Y154275D01*
X18439Y154299D01*
X18349Y154331D01*
X18303Y154334D01*
X18259Y154345D01*
X18163Y154342D01*
X18067Y154348D01*
X18026Y154337D01*
X17977Y154336D01*
X17856Y154296D01*
X17768Y154275D01*
X17344Y154099D01*
X14956Y154099D01*
G37*
%LPD*%
%LPC*%
G36*
X14956Y37099D02*
X14956Y37099D01*
X12751Y38013D01*
X11063Y39701D01*
X10149Y41906D01*
X10149Y44294D01*
X11063Y46499D01*
X12751Y48187D01*
X14956Y49101D01*
X17344Y49101D01*
X17768Y48925D01*
X17861Y48901D01*
X17951Y48869D01*
X17997Y48866D01*
X18041Y48855D01*
X18137Y48858D01*
X18233Y48852D01*
X18274Y48863D01*
X18323Y48864D01*
X18444Y48904D01*
X18532Y48925D01*
X18956Y49101D01*
X21344Y49101D01*
X23628Y48155D01*
X23669Y48124D01*
X23729Y48101D01*
X23785Y48069D01*
X23861Y48051D01*
X23933Y48024D01*
X23997Y48019D01*
X24060Y48004D01*
X24137Y48008D01*
X24214Y48002D01*
X24277Y48015D01*
X24342Y48019D01*
X24415Y48044D01*
X24490Y48060D01*
X24547Y48090D01*
X24608Y48111D01*
X24661Y48150D01*
X26956Y49101D01*
X29344Y49101D01*
X29768Y48925D01*
X29861Y48901D01*
X29951Y48869D01*
X29997Y48866D01*
X30041Y48855D01*
X30137Y48858D01*
X30233Y48852D01*
X30274Y48863D01*
X30323Y48864D01*
X30444Y48904D01*
X30532Y48925D01*
X30956Y49101D01*
X33344Y49101D01*
X35549Y48187D01*
X37237Y46499D01*
X38151Y44294D01*
X38151Y41906D01*
X37237Y39701D01*
X35549Y38013D01*
X33344Y37099D01*
X30956Y37099D01*
X30532Y37275D01*
X30439Y37299D01*
X30349Y37331D01*
X30303Y37334D01*
X30259Y37345D01*
X30163Y37342D01*
X30067Y37348D01*
X30026Y37337D01*
X29977Y37336D01*
X29856Y37296D01*
X29768Y37275D01*
X29344Y37099D01*
X26956Y37099D01*
X24673Y38045D01*
X24631Y38076D01*
X24571Y38099D01*
X24515Y38131D01*
X24440Y38149D01*
X24368Y38176D01*
X24303Y38181D01*
X24241Y38196D01*
X24163Y38192D01*
X24086Y38198D01*
X24023Y38185D01*
X23959Y38181D01*
X23886Y38156D01*
X23810Y38140D01*
X23753Y38110D01*
X23692Y38089D01*
X23640Y38050D01*
X21344Y37099D01*
X18956Y37099D01*
X18532Y37275D01*
X18439Y37299D01*
X18349Y37331D01*
X18303Y37334D01*
X18259Y37345D01*
X18163Y37342D01*
X18067Y37348D01*
X18026Y37337D01*
X17977Y37336D01*
X17856Y37296D01*
X17768Y37275D01*
X17344Y37099D01*
X14956Y37099D01*
G37*
%LPD*%
%LPC*%
G36*
X23358Y116599D02*
X23358Y116599D01*
X20601Y117741D01*
X18491Y119851D01*
X17349Y122608D01*
X17349Y125592D01*
X18491Y128349D01*
X20601Y130459D01*
X23358Y131601D01*
X26342Y131601D01*
X29099Y130459D01*
X31209Y128349D01*
X32351Y125592D01*
X32351Y122608D01*
X31209Y119851D01*
X29099Y117741D01*
X26342Y116599D01*
X23358Y116599D01*
G37*
%LPD*%
%LPC*%
G36*
X23358Y71599D02*
X23358Y71599D01*
X20601Y72741D01*
X18491Y74851D01*
X17349Y77608D01*
X17349Y80592D01*
X18491Y83349D01*
X20601Y85459D01*
X23358Y86601D01*
X26342Y86601D01*
X29099Y85459D01*
X31209Y83349D01*
X32351Y80592D01*
X32351Y77608D01*
X31209Y74851D01*
X29099Y72741D01*
X26342Y71599D01*
X23358Y71599D01*
G37*
%LPD*%
D10*
X33040Y160100D02*
X15260Y160100D01*
X15260Y43100D02*
X33040Y43100D01*
D11*
X144780Y17780D03*
X124460Y17780D03*
D12*
X78740Y24130D03*
X144780Y25400D03*
X144780Y10160D03*
X66040Y24130D03*
X330000Y160000D03*
X330000Y130000D03*
X330000Y100000D03*
X330000Y70000D03*
X330000Y40000D03*
X370000Y160000D03*
X370000Y130000D03*
X370000Y100000D03*
X370000Y70000D03*
X370000Y40000D03*
X410000Y130000D03*
X410000Y100000D03*
X410000Y70000D03*
X410000Y40000D03*
X260000Y130000D03*
X260000Y100000D03*
X260000Y70000D03*
X230000Y100000D03*
X260000Y160000D03*
X260000Y40000D03*
X64770Y195580D03*
X34290Y111760D03*
D13*
X38100Y111760D01*
X50800Y124460D02*
X50800Y185420D01*
X60960Y195580D01*
X64770Y195580D01*
X50800Y124460D02*
X38100Y111760D01*
D12*
X64770Y186690D03*
X34290Y91440D03*
D13*
X39370Y96520D01*
X39370Y106776D01*
X54324Y121730D01*
X54324Y183864D02*
X57150Y186690D01*
X64770Y186690D01*
X54324Y183864D02*
X54324Y121730D01*
D12*
X116840Y176530D03*
D13*
X122206Y181896D01*
X286734Y181896D02*
X307340Y161290D01*
X286734Y181896D02*
X122206Y181896D01*
D12*
X307340Y161290D03*
X83820Y186690D03*
D13*
X85090Y185420D01*
X289560Y185420D01*
X302260Y172720D01*
X307340Y172720D01*
D12*
X307340Y172720D03*
X246380Y69850D03*
X238760Y69850D03*
X166370Y151130D03*
X166370Y142240D03*
D14*
X166370Y151130D02*
X166370Y127000D01*
X191770Y101600D01*
X207010Y101600D01*
X238760Y69850D01*
X246380Y69850D01*
D12*
X124460Y25400D03*
X124460Y10160D03*
X104140Y153670D03*
X95250Y153670D03*
D15*
X124460Y72390D02*
X124460Y20000D01*
X124460Y72390D02*
X124460Y74930D01*
X124460Y87630D01*
X124460Y137160D01*
X107950Y153670D02*
X95250Y153670D01*
X107950Y153670D02*
X124460Y137160D01*
D12*
X124460Y88900D03*
X124460Y53340D03*
X124460Y71120D03*
D13*
X124460Y87630D02*
X124460Y88900D01*
X124460Y72390D02*
X124460Y53340D01*
X124460Y71120D02*
X126365Y73025D01*
X124460Y74930D01*
X124460Y20000D02*
X124460Y17780D01*
D12*
X228600Y195580D03*
X419100Y184150D03*
D13*
X228600Y192754D02*
X228600Y195580D01*
X228600Y192754D02*
X232410Y188944D01*
X297084Y184150D02*
X419100Y184150D01*
X297084Y184150D02*
X292290Y188944D01*
X232410Y188944D01*
D12*
X228600Y173990D03*
X417830Y20320D03*
D13*
X232982Y178372D02*
X228600Y173990D01*
X299720Y162656D02*
X299720Y39370D01*
X318770Y20320D01*
X417830Y20320D01*
X284004Y178372D02*
X232982Y178372D01*
X284004Y178372D02*
X299720Y162656D01*
M02*
