G04 EAGLE Gerber RS-274X export*
G75*
%MOMM*%
%FSLAX34Y34*%
%LPD*%
%IN*%
%IPPOS*%
%AMOC8*
5,1,8,0,0,1.08239X$1,22.5*%
G01*
%ADD10C,0.254000*%


D10*
X0Y6350D02*
X24Y5797D01*
X96Y5247D01*
X216Y4707D01*
X383Y4178D01*
X595Y3666D01*
X851Y3175D01*
X1148Y2708D01*
X1486Y2268D01*
X1860Y1860D01*
X2268Y1486D01*
X2708Y1148D01*
X3175Y851D01*
X3666Y595D01*
X4178Y383D01*
X4707Y216D01*
X5247Y96D01*
X5797Y24D01*
X6350Y0D01*
X444500Y0D01*
X444500Y203200D01*
X6350Y203200D01*
X5797Y203176D01*
X5247Y203104D01*
X4707Y202984D01*
X4178Y202817D01*
X3666Y202605D01*
X3175Y202349D01*
X2708Y202052D01*
X2268Y201714D01*
X1860Y201340D01*
X1486Y200932D01*
X1148Y200492D01*
X851Y200025D01*
X595Y199534D01*
X383Y199022D01*
X216Y198494D01*
X96Y197953D01*
X24Y197403D01*
X0Y196850D01*
X0Y6350D01*
X30350Y123791D02*
X30281Y123177D01*
X30143Y122575D01*
X29939Y121992D01*
X29671Y121435D01*
X29343Y120912D01*
X28958Y120429D01*
X28521Y119993D01*
X28038Y119607D01*
X27515Y119279D01*
X26958Y119011D01*
X26375Y118807D01*
X25773Y118669D01*
X25159Y118600D01*
X24541Y118600D01*
X23927Y118669D01*
X23325Y118807D01*
X22742Y119011D01*
X22185Y119279D01*
X21662Y119607D01*
X21179Y119993D01*
X20743Y120429D01*
X20357Y120912D01*
X20029Y121435D01*
X19761Y121992D01*
X19557Y122575D01*
X19419Y123177D01*
X19350Y123791D01*
X19350Y124409D01*
X19419Y125023D01*
X19557Y125625D01*
X19761Y126208D01*
X20029Y126765D01*
X20357Y127288D01*
X20743Y127771D01*
X21179Y128208D01*
X21662Y128593D01*
X22185Y128921D01*
X22742Y129189D01*
X23325Y129393D01*
X23927Y129531D01*
X24541Y129600D01*
X25159Y129600D01*
X25773Y129531D01*
X26375Y129393D01*
X26958Y129189D01*
X27515Y128921D01*
X28038Y128593D01*
X28521Y128208D01*
X28958Y127771D01*
X29343Y127288D01*
X29671Y126765D01*
X29939Y126208D01*
X30143Y125625D01*
X30281Y125023D01*
X30350Y124409D01*
X30350Y123791D01*
X30350Y78791D02*
X30281Y78177D01*
X30143Y77575D01*
X29939Y76992D01*
X29671Y76435D01*
X29343Y75912D01*
X28958Y75429D01*
X28521Y74993D01*
X28038Y74607D01*
X27515Y74279D01*
X26958Y74011D01*
X26375Y73807D01*
X25773Y73669D01*
X25159Y73600D01*
X24541Y73600D01*
X23927Y73669D01*
X23325Y73807D01*
X22742Y74011D01*
X22185Y74279D01*
X21662Y74607D01*
X21179Y74993D01*
X20743Y75429D01*
X20357Y75912D01*
X20029Y76435D01*
X19761Y76992D01*
X19557Y77575D01*
X19419Y78177D01*
X19350Y78791D01*
X19350Y79409D01*
X19419Y80023D01*
X19557Y80625D01*
X19761Y81208D01*
X20029Y81765D01*
X20357Y82288D01*
X20743Y82771D01*
X21179Y83208D01*
X21662Y83593D01*
X22185Y83921D01*
X22742Y84189D01*
X23325Y84393D01*
X23927Y84531D01*
X24541Y84600D01*
X25159Y84600D01*
X25773Y84531D01*
X26375Y84393D01*
X26958Y84189D01*
X27515Y83921D01*
X28038Y83593D01*
X28521Y83208D01*
X28958Y82771D01*
X29343Y82288D01*
X29671Y81765D01*
X29939Y81208D01*
X30143Y80625D01*
X30281Y80023D01*
X30350Y79409D01*
X30350Y78791D01*
X32150Y42838D02*
X32082Y42318D01*
X31946Y41811D01*
X31745Y41327D01*
X31483Y40873D01*
X31164Y40457D01*
X30793Y40086D01*
X30377Y39767D01*
X29923Y39505D01*
X29439Y39304D01*
X28932Y39168D01*
X28412Y39100D01*
X27888Y39100D01*
X27368Y39168D01*
X26861Y39304D01*
X26377Y39505D01*
X25923Y39767D01*
X25507Y40086D01*
X25136Y40457D01*
X24817Y40873D01*
X24555Y41327D01*
X24354Y41811D01*
X24218Y42318D01*
X24150Y42838D01*
X24150Y43362D01*
X24218Y43882D01*
X24354Y44389D01*
X24555Y44873D01*
X24817Y45327D01*
X25136Y45743D01*
X25507Y46114D01*
X25923Y46433D01*
X26377Y46695D01*
X26861Y46896D01*
X27368Y47032D01*
X27888Y47100D01*
X28412Y47100D01*
X28932Y47032D01*
X29439Y46896D01*
X29923Y46695D01*
X30377Y46433D01*
X30793Y46114D01*
X31164Y45743D01*
X31483Y45327D01*
X31745Y44873D01*
X31946Y44389D01*
X32082Y43882D01*
X32150Y43362D01*
X32150Y42838D01*
X36150Y42838D02*
X36082Y42318D01*
X35946Y41811D01*
X35745Y41327D01*
X35483Y40873D01*
X35164Y40457D01*
X34793Y40086D01*
X34377Y39767D01*
X33923Y39505D01*
X33439Y39304D01*
X32932Y39168D01*
X32412Y39100D01*
X31888Y39100D01*
X31368Y39168D01*
X30861Y39304D01*
X30377Y39505D01*
X29923Y39767D01*
X29507Y40086D01*
X29136Y40457D01*
X28817Y40873D01*
X28555Y41327D01*
X28354Y41811D01*
X28218Y42318D01*
X28150Y42838D01*
X28150Y43362D01*
X28218Y43882D01*
X28354Y44389D01*
X28555Y44873D01*
X28817Y45327D01*
X29136Y45743D01*
X29507Y46114D01*
X29923Y46433D01*
X30377Y46695D01*
X30861Y46896D01*
X31368Y47032D01*
X31888Y47100D01*
X32412Y47100D01*
X32932Y47032D01*
X33439Y46896D01*
X33923Y46695D01*
X34377Y46433D01*
X34793Y46114D01*
X35164Y45743D01*
X35483Y45327D01*
X35745Y44873D01*
X35946Y44389D01*
X36082Y43882D01*
X36150Y43362D01*
X36150Y42838D01*
X24150Y42838D02*
X24082Y42318D01*
X23946Y41811D01*
X23745Y41327D01*
X23483Y40873D01*
X23164Y40457D01*
X22793Y40086D01*
X22377Y39767D01*
X21923Y39505D01*
X21439Y39304D01*
X20932Y39168D01*
X20412Y39100D01*
X19888Y39100D01*
X19368Y39168D01*
X18861Y39304D01*
X18377Y39505D01*
X17923Y39767D01*
X17507Y40086D01*
X17136Y40457D01*
X16817Y40873D01*
X16555Y41327D01*
X16354Y41811D01*
X16218Y42318D01*
X16150Y42838D01*
X16150Y43362D01*
X16218Y43882D01*
X16354Y44389D01*
X16555Y44873D01*
X16817Y45327D01*
X17136Y45743D01*
X17507Y46114D01*
X17923Y46433D01*
X18377Y46695D01*
X18861Y46896D01*
X19368Y47032D01*
X19888Y47100D01*
X20412Y47100D01*
X20932Y47032D01*
X21439Y46896D01*
X21923Y46695D01*
X22377Y46433D01*
X22793Y46114D01*
X23164Y45743D01*
X23483Y45327D01*
X23745Y44873D01*
X23946Y44389D01*
X24082Y43882D01*
X24150Y43362D01*
X24150Y42838D01*
X20150Y42838D02*
X20082Y42318D01*
X19946Y41811D01*
X19745Y41327D01*
X19483Y40873D01*
X19164Y40457D01*
X18793Y40086D01*
X18377Y39767D01*
X17923Y39505D01*
X17439Y39304D01*
X16932Y39168D01*
X16412Y39100D01*
X15888Y39100D01*
X15368Y39168D01*
X14861Y39304D01*
X14377Y39505D01*
X13923Y39767D01*
X13507Y40086D01*
X13136Y40457D01*
X12817Y40873D01*
X12555Y41327D01*
X12354Y41811D01*
X12218Y42318D01*
X12150Y42838D01*
X12150Y43362D01*
X12218Y43882D01*
X12354Y44389D01*
X12555Y44873D01*
X12817Y45327D01*
X13136Y45743D01*
X13507Y46114D01*
X13923Y46433D01*
X14377Y46695D01*
X14861Y46896D01*
X15368Y47032D01*
X15888Y47100D01*
X16412Y47100D01*
X16932Y47032D01*
X17439Y46896D01*
X17923Y46695D01*
X18377Y46433D01*
X18793Y46114D01*
X19164Y45743D01*
X19483Y45327D01*
X19745Y44873D01*
X19946Y44389D01*
X20082Y43882D01*
X20150Y43362D01*
X20150Y42838D01*
X32150Y159838D02*
X32082Y159318D01*
X31946Y158811D01*
X31745Y158327D01*
X31483Y157873D01*
X31164Y157457D01*
X30793Y157086D01*
X30377Y156767D01*
X29923Y156505D01*
X29439Y156304D01*
X28932Y156168D01*
X28412Y156100D01*
X27888Y156100D01*
X27368Y156168D01*
X26861Y156304D01*
X26377Y156505D01*
X25923Y156767D01*
X25507Y157086D01*
X25136Y157457D01*
X24817Y157873D01*
X24555Y158327D01*
X24354Y158811D01*
X24218Y159318D01*
X24150Y159838D01*
X24150Y160362D01*
X24218Y160882D01*
X24354Y161389D01*
X24555Y161873D01*
X24817Y162327D01*
X25136Y162743D01*
X25507Y163114D01*
X25923Y163433D01*
X26377Y163695D01*
X26861Y163896D01*
X27368Y164032D01*
X27888Y164100D01*
X28412Y164100D01*
X28932Y164032D01*
X29439Y163896D01*
X29923Y163695D01*
X30377Y163433D01*
X30793Y163114D01*
X31164Y162743D01*
X31483Y162327D01*
X31745Y161873D01*
X31946Y161389D01*
X32082Y160882D01*
X32150Y160362D01*
X32150Y159838D01*
X36150Y159838D02*
X36082Y159318D01*
X35946Y158811D01*
X35745Y158327D01*
X35483Y157873D01*
X35164Y157457D01*
X34793Y157086D01*
X34377Y156767D01*
X33923Y156505D01*
X33439Y156304D01*
X32932Y156168D01*
X32412Y156100D01*
X31888Y156100D01*
X31368Y156168D01*
X30861Y156304D01*
X30377Y156505D01*
X29923Y156767D01*
X29507Y157086D01*
X29136Y157457D01*
X28817Y157873D01*
X28555Y158327D01*
X28354Y158811D01*
X28218Y159318D01*
X28150Y159838D01*
X28150Y160362D01*
X28218Y160882D01*
X28354Y161389D01*
X28555Y161873D01*
X28817Y162327D01*
X29136Y162743D01*
X29507Y163114D01*
X29923Y163433D01*
X30377Y163695D01*
X30861Y163896D01*
X31368Y164032D01*
X31888Y164100D01*
X32412Y164100D01*
X32932Y164032D01*
X33439Y163896D01*
X33923Y163695D01*
X34377Y163433D01*
X34793Y163114D01*
X35164Y162743D01*
X35483Y162327D01*
X35745Y161873D01*
X35946Y161389D01*
X36082Y160882D01*
X36150Y160362D01*
X36150Y159838D01*
X24150Y159838D02*
X24082Y159318D01*
X23946Y158811D01*
X23745Y158327D01*
X23483Y157873D01*
X23164Y157457D01*
X22793Y157086D01*
X22377Y156767D01*
X21923Y156505D01*
X21439Y156304D01*
X20932Y156168D01*
X20412Y156100D01*
X19888Y156100D01*
X19368Y156168D01*
X18861Y156304D01*
X18377Y156505D01*
X17923Y156767D01*
X17507Y157086D01*
X17136Y157457D01*
X16817Y157873D01*
X16555Y158327D01*
X16354Y158811D01*
X16218Y159318D01*
X16150Y159838D01*
X16150Y160362D01*
X16218Y160882D01*
X16354Y161389D01*
X16555Y161873D01*
X16817Y162327D01*
X17136Y162743D01*
X17507Y163114D01*
X17923Y163433D01*
X18377Y163695D01*
X18861Y163896D01*
X19368Y164032D01*
X19888Y164100D01*
X20412Y164100D01*
X20932Y164032D01*
X21439Y163896D01*
X21923Y163695D01*
X22377Y163433D01*
X22793Y163114D01*
X23164Y162743D01*
X23483Y162327D01*
X23745Y161873D01*
X23946Y161389D01*
X24082Y160882D01*
X24150Y160362D01*
X24150Y159838D01*
X20150Y159838D02*
X20082Y159318D01*
X19946Y158811D01*
X19745Y158327D01*
X19483Y157873D01*
X19164Y157457D01*
X18793Y157086D01*
X18377Y156767D01*
X17923Y156505D01*
X17439Y156304D01*
X16932Y156168D01*
X16412Y156100D01*
X15888Y156100D01*
X15368Y156168D01*
X14861Y156304D01*
X14377Y156505D01*
X13923Y156767D01*
X13507Y157086D01*
X13136Y157457D01*
X12817Y157873D01*
X12555Y158327D01*
X12354Y158811D01*
X12218Y159318D01*
X12150Y159838D01*
X12150Y160362D01*
X12218Y160882D01*
X12354Y161389D01*
X12555Y161873D01*
X12817Y162327D01*
X13136Y162743D01*
X13507Y163114D01*
X13923Y163433D01*
X14377Y163695D01*
X14861Y163896D01*
X15368Y164032D01*
X15888Y164100D01*
X16412Y164100D01*
X16932Y164032D01*
X17439Y163896D01*
X17923Y163695D01*
X18377Y163433D01*
X18793Y163114D01*
X19164Y162743D01*
X19483Y162327D01*
X19745Y161873D01*
X19946Y161389D01*
X20082Y160882D01*
X20150Y160362D01*
X20150Y159838D01*
M02*
