G04 EAGLE Gerber RS-274X export*
G75*
%MOMM*%
%FSLAX34Y34*%
%LPD*%
%INSilkscreen Bottom*%
%IPPOS*%
%AMOC8*
5,1,8,0,0,1.08239X$1,22.5*%
G01*
%ADD10C,0.203200*%
%ADD11C,0.152400*%
%ADD12C,0.254000*%


D10*
X14138Y62611D02*
X14138Y65600D01*
X17128Y63607D02*
X9654Y63607D01*
X9578Y63609D01*
X9503Y63615D01*
X9428Y63624D01*
X9353Y63638D01*
X9279Y63655D01*
X9206Y63676D01*
X9135Y63700D01*
X9064Y63728D01*
X8996Y63760D01*
X8928Y63795D01*
X8863Y63833D01*
X8800Y63875D01*
X8739Y63920D01*
X8680Y63968D01*
X8624Y64018D01*
X8570Y64072D01*
X8520Y64128D01*
X8472Y64187D01*
X8427Y64248D01*
X8385Y64311D01*
X8347Y64376D01*
X8312Y64444D01*
X8280Y64512D01*
X8252Y64583D01*
X8228Y64654D01*
X8207Y64727D01*
X8190Y64801D01*
X8176Y64876D01*
X8167Y64951D01*
X8161Y65026D01*
X8159Y65102D01*
X8160Y65102D02*
X8160Y65600D01*
X8160Y69269D02*
X8658Y69269D01*
X8658Y69767D01*
X8160Y69767D01*
X8160Y69269D01*
X8160Y74449D02*
X14138Y74449D01*
X14138Y78933D01*
X14139Y78933D02*
X14137Y79009D01*
X14131Y79084D01*
X14122Y79159D01*
X14108Y79234D01*
X14091Y79308D01*
X14070Y79381D01*
X14046Y79452D01*
X14018Y79523D01*
X13986Y79591D01*
X13951Y79659D01*
X13913Y79724D01*
X13871Y79787D01*
X13826Y79848D01*
X13778Y79907D01*
X13728Y79963D01*
X13674Y80017D01*
X13618Y80067D01*
X13559Y80115D01*
X13498Y80160D01*
X13435Y80202D01*
X13370Y80240D01*
X13302Y80275D01*
X13234Y80307D01*
X13163Y80335D01*
X13092Y80359D01*
X13019Y80380D01*
X12945Y80397D01*
X12870Y80411D01*
X12795Y80420D01*
X12720Y80426D01*
X12644Y80428D01*
X12644Y80427D02*
X8160Y80427D01*
X8160Y77438D02*
X14138Y77438D01*
X8160Y87170D02*
X8160Y89661D01*
X8159Y87170D02*
X8161Y87094D01*
X8167Y87019D01*
X8176Y86944D01*
X8190Y86869D01*
X8207Y86795D01*
X8228Y86722D01*
X8252Y86651D01*
X8280Y86580D01*
X8312Y86512D01*
X8347Y86444D01*
X8385Y86379D01*
X8427Y86316D01*
X8472Y86255D01*
X8520Y86196D01*
X8570Y86140D01*
X8624Y86086D01*
X8680Y86036D01*
X8739Y85988D01*
X8800Y85943D01*
X8863Y85901D01*
X8928Y85863D01*
X8996Y85828D01*
X9064Y85796D01*
X9135Y85768D01*
X9206Y85744D01*
X9279Y85723D01*
X9353Y85706D01*
X9428Y85692D01*
X9503Y85683D01*
X9578Y85677D01*
X9654Y85675D01*
X12146Y85675D01*
X12234Y85677D01*
X12322Y85683D01*
X12410Y85693D01*
X12497Y85706D01*
X12583Y85724D01*
X12669Y85745D01*
X12753Y85770D01*
X12837Y85799D01*
X12919Y85831D01*
X12999Y85867D01*
X13078Y85906D01*
X13155Y85949D01*
X13230Y85996D01*
X13303Y86045D01*
X13374Y86098D01*
X13442Y86154D01*
X13508Y86213D01*
X13571Y86274D01*
X13631Y86339D01*
X13688Y86406D01*
X13743Y86475D01*
X13794Y86547D01*
X13842Y86621D01*
X13886Y86697D01*
X13928Y86775D01*
X13965Y86855D01*
X14000Y86936D01*
X14030Y87019D01*
X14057Y87103D01*
X14080Y87188D01*
X14100Y87274D01*
X14115Y87361D01*
X14127Y87448D01*
X14135Y87536D01*
X14139Y87624D01*
X14139Y87712D01*
X14135Y87800D01*
X14127Y87888D01*
X14115Y87975D01*
X14100Y88062D01*
X14080Y88148D01*
X14057Y88233D01*
X14030Y88317D01*
X14000Y88400D01*
X13965Y88481D01*
X13928Y88561D01*
X13886Y88639D01*
X13842Y88715D01*
X13794Y88789D01*
X13743Y88861D01*
X13688Y88930D01*
X13631Y88997D01*
X13571Y89062D01*
X13508Y89123D01*
X13442Y89182D01*
X13374Y89238D01*
X13303Y89291D01*
X13230Y89340D01*
X13155Y89387D01*
X13078Y89430D01*
X12999Y89469D01*
X12919Y89505D01*
X12837Y89537D01*
X12753Y89566D01*
X12669Y89591D01*
X12583Y89612D01*
X12497Y89630D01*
X12410Y89643D01*
X12322Y89653D01*
X12234Y89659D01*
X12146Y89661D01*
X11149Y89661D01*
X11149Y85675D01*
X7163Y93925D02*
X18124Y97911D01*
X17128Y106076D02*
X8160Y106076D01*
X8160Y103585D01*
X8159Y103585D02*
X8161Y103509D01*
X8167Y103434D01*
X8176Y103359D01*
X8190Y103284D01*
X8207Y103210D01*
X8228Y103137D01*
X8252Y103066D01*
X8280Y102995D01*
X8312Y102927D01*
X8347Y102859D01*
X8385Y102794D01*
X8427Y102731D01*
X8472Y102670D01*
X8520Y102611D01*
X8570Y102555D01*
X8624Y102501D01*
X8680Y102451D01*
X8739Y102403D01*
X8800Y102358D01*
X8863Y102316D01*
X8928Y102278D01*
X8996Y102243D01*
X9064Y102211D01*
X9135Y102183D01*
X9206Y102159D01*
X9279Y102138D01*
X9353Y102121D01*
X9428Y102107D01*
X9503Y102098D01*
X9578Y102092D01*
X9654Y102090D01*
X9654Y102091D02*
X12644Y102091D01*
X12644Y102090D02*
X12720Y102092D01*
X12795Y102098D01*
X12870Y102107D01*
X12945Y102121D01*
X13019Y102138D01*
X13092Y102159D01*
X13163Y102183D01*
X13234Y102211D01*
X13302Y102243D01*
X13370Y102278D01*
X13435Y102316D01*
X13498Y102358D01*
X13559Y102403D01*
X13618Y102451D01*
X13674Y102501D01*
X13728Y102555D01*
X13778Y102611D01*
X13826Y102670D01*
X13871Y102731D01*
X13913Y102794D01*
X13951Y102859D01*
X13986Y102927D01*
X14018Y102995D01*
X14046Y103066D01*
X14070Y103137D01*
X14091Y103210D01*
X14108Y103284D01*
X14122Y103359D01*
X14131Y103434D01*
X14137Y103509D01*
X14139Y103585D01*
X14138Y103585D02*
X14138Y106076D01*
X8160Y112580D02*
X8160Y115071D01*
X8159Y112580D02*
X8161Y112504D01*
X8167Y112429D01*
X8176Y112354D01*
X8190Y112279D01*
X8207Y112205D01*
X8228Y112132D01*
X8252Y112061D01*
X8280Y111990D01*
X8312Y111922D01*
X8347Y111854D01*
X8385Y111789D01*
X8427Y111726D01*
X8472Y111665D01*
X8520Y111606D01*
X8570Y111550D01*
X8624Y111496D01*
X8680Y111446D01*
X8739Y111398D01*
X8800Y111353D01*
X8863Y111311D01*
X8928Y111273D01*
X8996Y111238D01*
X9064Y111206D01*
X9135Y111178D01*
X9206Y111154D01*
X9279Y111133D01*
X9353Y111116D01*
X9428Y111102D01*
X9503Y111093D01*
X9578Y111087D01*
X9654Y111085D01*
X12146Y111085D01*
X12234Y111087D01*
X12322Y111093D01*
X12410Y111103D01*
X12497Y111116D01*
X12583Y111134D01*
X12669Y111155D01*
X12753Y111180D01*
X12837Y111209D01*
X12919Y111241D01*
X12999Y111277D01*
X13078Y111316D01*
X13155Y111359D01*
X13230Y111406D01*
X13303Y111455D01*
X13374Y111508D01*
X13442Y111564D01*
X13508Y111623D01*
X13571Y111684D01*
X13631Y111749D01*
X13688Y111816D01*
X13743Y111885D01*
X13794Y111957D01*
X13842Y112031D01*
X13886Y112107D01*
X13928Y112185D01*
X13965Y112265D01*
X14000Y112346D01*
X14030Y112429D01*
X14057Y112513D01*
X14080Y112598D01*
X14100Y112684D01*
X14115Y112771D01*
X14127Y112858D01*
X14135Y112946D01*
X14139Y113034D01*
X14139Y113122D01*
X14135Y113210D01*
X14127Y113298D01*
X14115Y113385D01*
X14100Y113472D01*
X14080Y113558D01*
X14057Y113643D01*
X14030Y113727D01*
X14000Y113810D01*
X13965Y113891D01*
X13928Y113971D01*
X13886Y114049D01*
X13842Y114125D01*
X13794Y114199D01*
X13743Y114271D01*
X13688Y114340D01*
X13631Y114407D01*
X13571Y114472D01*
X13508Y114533D01*
X13442Y114592D01*
X13374Y114648D01*
X13303Y114701D01*
X13230Y114750D01*
X13155Y114797D01*
X13078Y114840D01*
X12999Y114879D01*
X12919Y114915D01*
X12837Y114947D01*
X12753Y114976D01*
X12669Y115001D01*
X12583Y115022D01*
X12497Y115040D01*
X12410Y115053D01*
X12322Y115063D01*
X12234Y115069D01*
X12146Y115071D01*
X11149Y115071D01*
X11149Y111085D01*
X11647Y121324D02*
X11647Y123566D01*
X11648Y121324D02*
X11646Y121242D01*
X11640Y121161D01*
X11631Y121079D01*
X11617Y120999D01*
X11600Y120919D01*
X11579Y120840D01*
X11555Y120762D01*
X11527Y120685D01*
X11495Y120610D01*
X11460Y120536D01*
X11421Y120464D01*
X11379Y120394D01*
X11334Y120326D01*
X11286Y120260D01*
X11234Y120196D01*
X11180Y120135D01*
X11123Y120076D01*
X11063Y120021D01*
X11000Y119968D01*
X10936Y119918D01*
X10869Y119871D01*
X10799Y119827D01*
X10728Y119787D01*
X10655Y119750D01*
X10581Y119717D01*
X10505Y119687D01*
X10427Y119660D01*
X10349Y119638D01*
X10269Y119619D01*
X10189Y119603D01*
X10108Y119592D01*
X10027Y119584D01*
X9945Y119580D01*
X9863Y119580D01*
X9781Y119584D01*
X9700Y119592D01*
X9619Y119603D01*
X9539Y119619D01*
X9459Y119638D01*
X9381Y119660D01*
X9303Y119687D01*
X9227Y119717D01*
X9153Y119750D01*
X9080Y119787D01*
X9009Y119827D01*
X8939Y119871D01*
X8872Y119918D01*
X8808Y119968D01*
X8745Y120021D01*
X8685Y120076D01*
X8628Y120135D01*
X8574Y120196D01*
X8522Y120260D01*
X8474Y120326D01*
X8429Y120394D01*
X8387Y120464D01*
X8348Y120536D01*
X8313Y120610D01*
X8281Y120685D01*
X8253Y120762D01*
X8229Y120840D01*
X8208Y120919D01*
X8191Y120999D01*
X8177Y121079D01*
X8168Y121161D01*
X8162Y121242D01*
X8160Y121324D01*
X8160Y123566D01*
X12644Y123566D01*
X12644Y123567D02*
X12720Y123565D01*
X12795Y123559D01*
X12870Y123550D01*
X12945Y123536D01*
X13019Y123519D01*
X13092Y123498D01*
X13163Y123474D01*
X13234Y123446D01*
X13302Y123414D01*
X13370Y123379D01*
X13435Y123341D01*
X13498Y123299D01*
X13559Y123254D01*
X13618Y123206D01*
X13674Y123156D01*
X13728Y123102D01*
X13778Y123046D01*
X13826Y122987D01*
X13871Y122926D01*
X13913Y122863D01*
X13951Y122798D01*
X13986Y122730D01*
X14018Y122662D01*
X14046Y122591D01*
X14070Y122520D01*
X14091Y122447D01*
X14108Y122373D01*
X14122Y122298D01*
X14131Y122223D01*
X14137Y122148D01*
X14139Y122072D01*
X14138Y122072D02*
X14138Y120079D01*
X8160Y128245D02*
X14138Y132231D01*
X14138Y128245D02*
X8160Y132231D01*
X8160Y136165D02*
X14138Y140151D01*
X14138Y136165D02*
X8160Y140151D01*
D11*
X142095Y40485D02*
X144494Y40485D01*
X142095Y40485D02*
X141998Y40483D01*
X141902Y40477D01*
X141806Y40468D01*
X141710Y40454D01*
X141615Y40437D01*
X141521Y40415D01*
X141428Y40390D01*
X141335Y40362D01*
X141244Y40329D01*
X141155Y40293D01*
X141067Y40253D01*
X140980Y40210D01*
X140896Y40164D01*
X140813Y40114D01*
X140732Y40060D01*
X140654Y40004D01*
X140578Y39944D01*
X140504Y39882D01*
X140433Y39816D01*
X140365Y39748D01*
X140299Y39677D01*
X140237Y39603D01*
X140177Y39527D01*
X140121Y39449D01*
X140067Y39368D01*
X140017Y39286D01*
X139971Y39201D01*
X139928Y39114D01*
X139888Y39026D01*
X139852Y38937D01*
X139819Y38846D01*
X139791Y38753D01*
X139766Y38660D01*
X139744Y38566D01*
X139727Y38471D01*
X139713Y38375D01*
X139704Y38279D01*
X139698Y38183D01*
X139696Y38086D01*
X139698Y37989D01*
X139704Y37893D01*
X139713Y37797D01*
X139727Y37701D01*
X139744Y37606D01*
X139766Y37512D01*
X139791Y37419D01*
X139819Y37326D01*
X139852Y37235D01*
X139888Y37146D01*
X139928Y37058D01*
X139971Y36971D01*
X140017Y36887D01*
X140067Y36804D01*
X140121Y36723D01*
X140177Y36645D01*
X140237Y36569D01*
X140299Y36495D01*
X140365Y36424D01*
X140433Y36356D01*
X140504Y36290D01*
X140578Y36228D01*
X140654Y36168D01*
X140732Y36112D01*
X140813Y36058D01*
X140895Y36008D01*
X140980Y35962D01*
X141067Y35919D01*
X141155Y35879D01*
X141244Y35843D01*
X141335Y35810D01*
X141428Y35782D01*
X141521Y35757D01*
X141615Y35735D01*
X141710Y35718D01*
X141806Y35704D01*
X141902Y35695D01*
X141998Y35689D01*
X142095Y35687D01*
X144494Y35687D01*
X144494Y44323D01*
X142095Y44323D01*
X142009Y44321D01*
X141923Y44315D01*
X141837Y44306D01*
X141752Y44292D01*
X141668Y44275D01*
X141584Y44254D01*
X141502Y44229D01*
X141421Y44201D01*
X141341Y44169D01*
X141262Y44133D01*
X141186Y44094D01*
X141111Y44051D01*
X141038Y44006D01*
X140967Y43957D01*
X140899Y43904D01*
X140832Y43849D01*
X140769Y43791D01*
X140708Y43730D01*
X140650Y43667D01*
X140595Y43600D01*
X140542Y43532D01*
X140493Y43461D01*
X140448Y43388D01*
X140405Y43313D01*
X140366Y43237D01*
X140330Y43158D01*
X140298Y43078D01*
X140270Y42997D01*
X140245Y42915D01*
X140224Y42831D01*
X140207Y42747D01*
X140193Y42662D01*
X140184Y42576D01*
X140178Y42490D01*
X140176Y42404D01*
X140178Y42318D01*
X140184Y42232D01*
X140193Y42146D01*
X140207Y42061D01*
X140224Y41977D01*
X140245Y41893D01*
X140270Y41811D01*
X140298Y41730D01*
X140330Y41650D01*
X140366Y41571D01*
X140405Y41495D01*
X140448Y41420D01*
X140493Y41347D01*
X140542Y41276D01*
X140595Y41208D01*
X140650Y41141D01*
X140708Y41078D01*
X140769Y41017D01*
X140832Y40959D01*
X140899Y40904D01*
X140967Y40851D01*
X141038Y40802D01*
X141111Y40757D01*
X141186Y40714D01*
X141262Y40675D01*
X141341Y40639D01*
X141421Y40607D01*
X141502Y40579D01*
X141584Y40554D01*
X141668Y40533D01*
X141752Y40516D01*
X141837Y40502D01*
X141923Y40493D01*
X142009Y40487D01*
X142095Y40485D01*
X136330Y35687D02*
X133451Y44323D01*
X130572Y35687D01*
X131292Y37846D02*
X135610Y37846D01*
X124917Y35687D02*
X124917Y44323D01*
X127316Y44323D02*
X122518Y44323D01*
D12*
X157364Y37917D02*
X166846Y37917D01*
X113506Y39187D02*
X104024Y39187D01*
X108765Y43928D02*
X108765Y34445D01*
M02*
