M48
;GenerationSoftware,Autodesk,EAGLE,9.6.2*%
;CreationDate,2022-04-11T18:12:01Z*%
FMAT,2
ICI,OFF
METRIC,TZ,000.000
T3C0.300
T2C0.800
T1C1.100
%
G90
M71
T1
X2485Y12410
X2485Y7910
T2
X2415Y4310
X2015Y4310
X2815Y4310
X3215Y4310
X1615Y4310
X2815Y16010
X3215Y16010
X2015Y16010
X1615Y16010
X2415Y16010
T3
X37000Y7000
X37000Y4000
X41000Y13000
X41000Y10000
X41000Y7000
X41000Y4000
X26000Y13000
X26000Y10000
X26000Y7000
X23000Y10000
X26000Y16000
X26000Y4000
X6477Y19558
X3429Y11176
X6477Y18669
X3429Y9144
X11684Y17653
X33000Y7000
X8382Y18669
X30734Y17272
X24638Y6985
X23876Y6985
X16637Y15113
X16637Y14224
X12446Y2540
X12446Y1016
X10414Y15367
X9525Y15367
X12446Y8890
X12446Y5334
X12446Y7112
X22860Y19558
X7874Y2413
X22860Y17399
X41783Y2032
X14478Y2540
X14478Y1016
X6604Y2413
X33000Y16000
X30734Y16129
X33000Y13000
X33000Y10000
X33000Y4000
X37000Y16000
X37000Y13000
X37000Y10000
X41910Y18415
M30